{
  "source": "C:\\Users\\Peter\\Desktop\\stuff\\MIUN\\quantitative_research\\video_compression\\videos\\BVI-HD\\BVI-HD_CDVL_videos\\ORIG\\BridgeRiver_1920x1080_30fps.mp4",
  "output": "C:\\Users\\Peter\\Desktop\\stuff\\MIUN\\quantitative_research\\video_compression\\compressed_videos\\BVI-HD\\vp9\\8\\BridgeRiver_1920x1080_30fps_vp9.webm",
  "codec": "vp9",
  "ok": "Input #0, mov,mp4,m4a,3gp,3g2,mj2, from 'C:\\Users\\Peter\\Desktop\\stuff\\MIUN\\quantitative_research\\video_compression\\videos\\BVI-HD\\BVI-HD_CDVL_videos\\ORIG\\BridgeRiver_1920x1080_30fps.mp4':\n  Metadata:\n    major_brand     : isom\n    minor_version   : 512\n    compatible_brands: isomiso2avc1mp41\n    encoder         : Lavf54.28.101\n  Duration: 00:00:05.00, start: 0.000000, bitrate: 274913 kb/s\n  Stream #0:0[0x1](und): Video: h264 (High 4:4:4 Predictive) (avc1 / 0x31637661), yuv420p(progressive), 1920x1080, 274910 kb/s, 30 fps, 30 tbr, 30 tbn (default)\n    Metadata:\n      handler_name    : VideoHandler\n      vendor_id       : [0][0][0][0]\n[out#0/webm @ 00000282ea889240] Codec AVOption b:a (set bitrate (in bits/s)) has not been used for any stream. The most likely reason is either wrong type (e.g. a video option with no video streams) or that it is a private option of some decoder which was not actually used for any stream.\nStream mapping:\n  Stream #0:0 -> #0:0 (h264 (native) -> vp9 (libvpx-vp9))\nPress [q] to stop, [?] for help\n[libvpx-vp9 @ 00000282eb4404c0] v1.15.2-100-g40561f514\nOutput #0, webm, to 'C:\\Users\\Peter\\Desktop\\stuff\\MIUN\\quantitative_research\\video_compression\\compressed_videos\\BVI-HD\\vp9\\8\\BridgeRiver_1920x1080_30fps_vp9.webm':\n  Metadata:\n    major_brand     : isom\n    minor_version   : 512\n    compatible_brands: isomiso2avc1mp41\n    encoder         : Lavf62.3.100\n  Stream #0:0(und): Video: vp9, yuv420p(tv, progressive), 1920x1080, q=2-31, 8000 kb/s, 30 fps, 1k tbn (default)\n    Metadata:\n      encoder         : Lavc62.11.100 libvpx-vp9\n      handler_name    : VideoHandler\n      vendor_id       : [0][0][0][0]\n    Side data:\n      cpb: bitrate max/min/avg: 0/0/0 buffer size: 8000000 vbv_delay: N/A\nframe=    0 fps=0.0 q=0.0 size=       0KiB time=N/A bitrate=N/A speed=N/A elapsed=0:00:00.51    \nframe=    0 fps=0.0 q=0.0 size=       0KiB time=N/A bitrate=N/A speed=N/A elapsed=0:00:01.03    \nframe=    3 fps=1.9 q=45.0 size=       1KiB time=00:00:00.10 bitrate=  50.7kbits/s speed=0.0641x elapsed=0:00:01.56    \nframe=    5 fps=2.4 q=53.0 size=       1KiB time=00:00:00.16 bitrate=  30.4kbits/s speed=0.079x elapsed=0:00:02.10    \nframe=    8 fps=3.0 q=53.0 size=       1KiB time=00:00:00.26 bitrate=  19.0kbits/s speed=0.101x elapsed=0:00:02.63    \nframe=   11 fps=3.5 q=27.0 size=       1KiB time=00:00:00.36 bitrate=  13.8kbits/s speed=0.116x elapsed=0:00:03.16    \nframe=   13 fps=3.5 q=52.0 size=       1KiB time=00:00:00.43 bitrate=  11.7kbits/s speed=0.117x elapsed=0:00:03.69    \nframe=   16 fps=3.8 q=52.0 size=       1KiB time=00:00:00.53 bitrate=   9.5kbits/s speed=0.126x elapsed=0:00:04.22    \nframe=   18 fps=3.8 q=52.0 size=       1KiB time=00:00:00.60 bitrate=   8.5kbits/s speed=0.126x elapsed=0:00:04.75    \nframe=   20 fps=3.8 q=52.0 size=       1KiB time=00:00:00.66 bitrate=   7.6kbits/s speed=0.126x elapsed=0:00:05.27    \nframe=   23 fps=4.0 q=52.0 size=       1KiB time=00:00:00.76 bitrate=   6.6kbits/s speed=0.132x elapsed=0:00:05.80    \nframe=   25 fps=3.9 q=52.0 size=       1KiB time=00:00:00.83 bitrate=   6.1kbits/s speed=0.131x elapsed=0:00:06.35    \nframe=   28 fps=4.1 q=52.0 size=       1KiB time=00:00:00.93 bitrate=   5.4kbits/s speed=0.136x elapsed=0:00:06.87    \nframe=   30 fps=4.1 q=52.0 size=       1KiB time=00:00:01.00 bitrate=   5.1kbits/s speed=0.135x elapsed=0:00:07.40    \nframe=   33 fps=4.2 q=52.0 size=       1KiB time=00:00:01.10 bitrate=   4.6kbits/s speed=0.138x elapsed=0:00:07.95    \nframe=   35 fps=4.1 q=52.0 size=       1KiB time=00:00:01.16 bitrate=   4.3kbits/s speed=0.138x elapsed=0:00:08.47    \nframe=   38 fps=4.2 q=52.0 size=       1KiB time=00:00:01.26 bitrate=   4.0kbits/s speed=0.141x elapsed=0:00:08.99    \nframe=   41 fps=4.3 q=31.0 size=       1KiB time=00:00:01.36 bitrate=   3.7kbits/s speed=0.144x elapsed=0:00:09.52    \nframe=   44 fps=4.4 q=53.0 size=       1KiB time=00:00:01.46 bitrate=   3.5kbits/s speed=0.145x elapsed=0:00:10.09    \nframe=   47 fps=4.4 q=54.0 size=       1KiB time=00:00:01.56 bitrate=   3.2kbits/s speed=0.147x elapsed=0:00:10.63    \nframe=   49 fps=4.3 q=54.0 size=       1KiB time=00:00:01.63 bitrate=   3.1kbits/s speed=0.145x elapsed=0:00:11.27    \nframe=   50 fps=4.2 q=54.0 size=       1KiB time=00:00:01.66 bitrate=   3.0kbits/s speed=0.139x elapsed=0:00:11.96    \nframe=   52 fps=4.1 q=54.0 size=       1KiB time=00:00:01.73 bitrate=   2.9kbits/s speed=0.138x elapsed=0:00:12.53    \nframe=   53 fps=4.1 q=53.0 size=       1KiB time=00:00:01.76 bitrate=   2.9kbits/s speed=0.135x elapsed=0:00:13.08    \nframe=   55 fps=4.0 q=53.0 size=       1KiB time=00:00:01.83 bitrate=   2.8kbits/s speed=0.135x elapsed=0:00:13.59    \nframe=   58 fps=4.1 q=53.0 size=       1KiB time=00:00:01.93 bitrate=   2.6kbits/s speed=0.137x elapsed=0:00:14.14    \nframe=   60 fps=4.1 q=53.0 size=       1KiB time=00:00:02.00 bitrate=   2.5kbits/s speed=0.136x elapsed=0:00:14.69    \nframe=   62 fps=4.1 q=53.0 size=       1KiB time=00:00:02.06 bitrate=   2.5kbits/s speed=0.136x elapsed=0:00:15.22    \nframe=   65 fps=4.1 q=53.0 size=       1KiB time=00:00:02.16 bitrate=   2.3kbits/s speed=0.138x elapsed=0:00:15.74    \nframe=   67 fps=4.1 q=53.0 size=       1KiB time=00:00:02.23 bitrate=   2.3kbits/s speed=0.137x elapsed=0:00:16.26    \nframe=   69 fps=4.1 q=53.0 size=       1KiB time=00:00:02.30 bitrate=   2.2kbits/s speed=0.137x elapsed=0:00:16.80    \nframe=   71 fps=4.1 q=32.0 size=       1KiB time=00:00:02.36 bitrate=   2.1kbits/s speed=0.136x elapsed=0:00:17.34    \nframe=   74 fps=4.1 q=53.0 size=       1KiB time=00:00:02.46 bitrate=   2.1kbits/s speed=0.138x elapsed=0:00:17.90    \nframe=   77 fps=4.2 q=53.0 size=       1KiB time=00:00:02.56 bitrate=   2.0kbits/s speed=0.139x elapsed=0:00:18.46    \nframe=   79 fps=4.2 q=53.0 size=       1KiB time=00:00:02.63 bitrate=   1.9kbits/s speed=0.139x elapsed=0:00:19.00    \nframe=   81 fps=4.1 q=32.0 size=       1KiB time=00:00:02.70 bitrate=   1.9kbits/s speed=0.138x elapsed=0:00:19.55    \nframe=   83 fps=4.1 q=53.0 size=       1KiB time=00:00:02.76 bitrate=   1.8kbits/s speed=0.138x elapsed=0:00:20.12    \nframe=   86 fps=4.2 q=53.0 size=       1KiB time=00:00:02.86 bitrate=   1.8kbits/s speed=0.139x elapsed=0:00:20.64    \nframe=   89 fps=4.2 q=53.0 size=       1KiB time=00:00:02.96 bitrate=   1.7kbits/s speed=0.14x elapsed=0:00:21.19    \nframe=   90 fps=4.1 q=53.0 size=       1KiB time=00:00:03.00 bitrate=   1.7kbits/s speed=0.138x elapsed=0:00:21.74    \nframe=   93 fps=4.2 q=53.0 size=       1KiB time=00:00:03.10 bitrate=   1.6kbits/s speed=0.139x elapsed=0:00:22.27    \nframe=   96 fps=4.2 q=53.0 size=       1KiB time=00:00:03.20 bitrate=   1.6kbits/s speed=0.14x elapsed=0:00:22.80    \nframe=   98 fps=4.2 q=53.0 size=       1KiB time=00:00:03.26 bitrate=   1.6kbits/s speed=0.14x elapsed=0:00:23.34    \nframe=  100 fps=4.2 q=53.0 size=       1KiB time=00:00:03.33 bitrate=   1.5kbits/s speed=0.139x elapsed=0:00:23.90    \nframe=  102 fps=4.2 q=53.0 size=       1KiB time=00:00:03.40 bitrate=   1.5kbits/s speed=0.139x elapsed=0:00:24.43    \nframe=  105 fps=4.2 q=53.0 size=       1KiB time=00:00:03.50 bitrate=   1.4kbits/s speed=0.14x elapsed=0:00:24.95    \nframe=  108 fps=4.2 q=53.0 size=       1KiB time=00:00:03.60 bitrate=   1.4kbits/s speed=0.141x elapsed=0:00:25.48    \nframe=  110 fps=4.2 q=53.0 size=       1KiB time=00:00:03.66 bitrate=   1.4kbits/s speed=0.141x elapsed=0:00:26.02    \nframe=  112 fps=4.2 q=53.0 size=       1KiB time=00:00:03.73 bitrate=   1.4kbits/s speed=0.14x elapsed=0:00:26.58    \nframe=  115 fps=4.2 q=53.0 size=       1KiB time=00:00:03.83 bitrate=   1.3kbits/s speed=0.141x elapsed=0:00:27.12    \nframe=  118 fps=4.3 q=53.0 size=       1KiB time=00:00:03.93 bitrate=   1.3kbits/s speed=0.142x elapsed=0:00:27.69    \nframe=  120 fps=4.2 q=53.0 size=       1KiB time=00:00:04.00 bitrate=   1.3kbits/s speed=0.142x elapsed=0:00:28.26    \nframe=  123 fps=4.3 q=55.0 size=       1KiB time=00:00:04.10 bitrate=   1.2kbits/s speed=0.142x elapsed=0:00:28.81    \nframe=  125 fps=4.3 q=55.0 size=       1KiB time=00:00:04.16 bitrate=   1.2kbits/s speed=0.142x elapsed=0:00:29.33    \nframe=  126 fps=4.2 q=55.0 size=       1KiB time=00:00:04.20 bitrate=   1.2kbits/s speed=0.141x elapsed=0:00:29.85    \nframe=  126 fps=4.1 q=55.0 size=       1KiB time=00:00:04.20 bitrate=   1.2kbits/s speed=0.138x elapsed=0:00:30.41    \nframe=  126 fps=4.1 q=55.0 size=       1KiB time=00:00:04.20 bitrate=   1.2kbits/s speed=0.136x elapsed=0:00:30.95    \nframe=  126 fps=4.0 q=55.0 size=       1KiB time=00:00:04.20 bitrate=   1.2kbits/s speed=0.133x elapsed=0:00:31.53    \nframe=  126 fps=3.9 q=55.0 size=       1KiB time=00:00:04.20 bitrate=   1.2kbits/s speed=0.131x elapsed=0:00:32.06    \nframe=  126 fps=3.9 q=55.0 size=       1KiB time=00:00:04.20 bitrate=   1.2kbits/s speed=0.129x elapsed=0:00:32.59    \nframe=  126 fps=3.8 q=55.0 size=       1KiB time=00:00:04.20 bitrate=   1.2kbits/s speed=0.127x elapsed=0:00:33.15    \nframe=  126 fps=3.7 q=55.0 size=       1KiB time=00:00:04.20 bitrate=   1.2kbits/s speed=0.125x elapsed=0:00:33.68    \nframe=  126 fps=3.7 q=55.0 size=       1KiB time=00:00:04.20 bitrate=   1.2kbits/s speed=0.123x elapsed=0:00:34.23    \n[out#0/webm @ 00000282ea889240] video:3862KiB audio:0KiB subtitle:0KiB other streams:0KiB global headers:0KiB muxing overhead: 0.046243%\nframe=  150 fps=4.4 q=53.0 Lsize=    3864KiB time=00:00:05.00 bitrate=6331.2kbits/s speed=0.146x elapsed=0:00:34.24    \n",
  "seconds": 34.5377984046936,
  "probe_out": {}
}